<svg id="Layer_1" data-name="Layer 1" xmlns="http://www.w3.org/2000/svg" viewBox="0 0 800 600"><defs><style>.cls-1{fill:#fff;}</style></defs><path class="cls-1" d="M290.57,380.86V257.33c0-28.5-22.53-32.25-22.53-32.25V175.64s65.41,4,69.21,83.25v122Z"/><path class="cls-1" d="M368.08,314.58A68.09,68.09,0,0,1,374,286.42a76,76,0,0,1,17.53-24.22,80.55,80.55,0,0,1,25.57-15.94,82.41,82.41,0,0,1,30-5.53,84.62,84.62,0,0,1,30.52,5.53,78.46,78.46,0,0,1,25.56,15.94,72.64,72.64,0,0,1,17.15,23.95,71.81,71.81,0,0,1,0,56.87A72.36,72.36,0,0,1,503.25,367a78.32,78.32,0,0,1-25.56,15.95,84.64,84.64,0,0,1-30.52,5.55,82.43,82.43,0,0,1-30-5.55A80.4,80.4,0,0,1,391.56,367,75.86,75.86,0,0,1,374,342.74,68,68,0,0,1,368.08,314.58Zm47.46-.28a31.42,31.42,0,0,0,9.28,22.87,30.12,30.12,0,0,0,22.31,9.44,32.32,32.32,0,0,0,0-64.63,30.13,30.13,0,0,0-22.31,9.45A31.39,31.39,0,0,0,415.54,314.3Z"/><path class="cls-1" d="M239.24,263c-10.33-11.94-27.61-22.31-44.17-21.77-19.41.64-35.84,4.23-48.22,14.8h-.59V179.78H100.5V379.39h45.76v-9.7h.59c9.84,7.5,23.16,13,41.42,13,20.17,0,38.69-5.74,50.76-19.36s18-26.47,18-49C257.08,293.65,249.56,275,239.24,263ZM200,337.46a30.94,30.94,0,0,1-22.68,9.44A30.14,30.14,0,0,1,155,337.46a32.83,32.83,0,0,1,0-45.75,30.12,30.12,0,0,1,22.31-9.45A32.35,32.35,0,0,1,200,337.46Z"/><path class="cls-1" d="M658.47,242.12V253h-.59c-11.08-10.06-22.36-14.42-40.31-14.42-20,0-37.57,6.67-49.85,21s-18.43,33.64-18.43,58q0,32.59,16.56,52c11,12.92,27.31,19.86,46.11,19.86,20.25,0,35.5-5.24,45.92-19.65h.59v9.3c0,24.13-25.57,36.39-44.19,34.52v36.22c22.31,3.21,48.8,1.95,67.38-15.7C697.31,419.26,704,397.88,704,362.83V242.12Zm-8.76,95.34A30.94,30.94,0,0,1,627,346.9a30.14,30.14,0,0,1-22.31-9.44,32.83,32.83,0,0,1,0-45.75A30.12,30.12,0,0,1,627,282.26a32.36,32.36,0,0,1,22.68,55.2Z"/></svg>