<?xml version="1.0" encoding="utf-8"?>
<!-- Generator: Adobe Illustrator 25.2.3, SVG Export Plug-In . SVG Version: 6.00 Build 0)  -->
<svg version="1.1" id="Layer_1" xmlns="http://www.w3.org/2000/svg" xmlns:xlink="http://www.w3.org/1999/xlink" x="0px" y="0px"
	 viewBox="0 0 800 600" style="enable-background:new 0 0 800 600;" xml:space="preserve">
<style type="text/css">
	.st0{fill:#FFFFFF;}
</style>
<path class="st0" d="M384.5,113.3l92.5,0c2.7,0,4.8,2.2,4.9,4.8c0,0,0,0.1,0,0.1c-1.3,77.3-77.5,89.7-78.3,89.8
	c-0.2,0-0.5,0.1-0.7,0.1h-97.7c-1.4,0-2.7-0.6-3.6-1.6c-0.9-1-1.4-2.3-1.3-3.7C306.9,125.3,383.7,113.4,384.5,113.3z M553.2,361.7
	h-38.5c-7.4,41.1-36.2,125.1-146.5,125.1C222,486.7,219,339.5,219,339.5v-88.4c0-2.7,2.2-4.8,4.8-4.8c0,0,0,0,0,0h329.3
	c31.9,0,57.7,25.8,57.7,57.7S585.1,361.7,553.2,361.7L553.2,361.7z M551.8,275.6c-15.5,0-28,12.6-28,28c0,15.5,12.6,28,28,28
	c15.5,0,28-12.5,28-28C579.9,288.1,567.3,275.6,551.8,275.6C551.9,275.6,551.8,275.6,551.8,275.6z"/>
</svg>
