<svg xmlns="http://www.w3.org/2000/svg" xmlns:xlink="http://www.w3.org/1999/xlink" viewBox="0 0 193.96 193.96"><defs><style>.cls-1{fill:url(#무제_그라디언트_5);}.cls-2{fill:#fff;}</style><linearGradient id="무제_그라디언트_5" y1="96.98" x2="193.96" y2="96.98" gradientUnits="userSpaceOnUse"><stop offset="0" stop-color="#2968ff"/><stop offset="1" stop-color="#29beff"/></linearGradient></defs><g id="레이어_2" data-name="레이어 2"><g id="레이어_1-2" data-name="레이어 1"><circle class="cls-1" cx="96.98" cy="96.98" r="96.98"/><path class="cls-2" d="M44.9,84.94H65.7v4H49.54V98.8H64.68v4H49.54v14H44.9Z"/><path class="cls-2" d="M75.75,103v13.79H71.08V84.94H83.82c6.62,0,10.15,3.6,10.15,8.56,0,4.17-2.36,6.64-5.27,7.5,2.4.68,4.69,2.56,4.69,8.12v1.41c0,2.18-.08,4.9.43,6.26H89.26c-.58-1.38-.57-3.84-.57-6.9v-.64c0-4.34-1.2-6.25-6.8-6.25Zm0-3.91h6.71c4.66,0,6.67-1.76,6.67-5.16,0-3.24-2.11-5.07-6.26-5.07H75.75Z"/><path class="cls-2" d="M121.28,102.12H105.55v10.67h17.29l-.6,4H100.93V84.94H122v4H105.55v9.18h15.73Z"/><path class="cls-2" d="M148.79,102.12H133.07v10.67h17.28l-.6,4h-21.3V84.94h21.08v4H133.07v9.18h15.72Z"/></g></g></svg>