<svg xmlns="http://www.w3.org/2000/svg" xmlns:xlink="http://www.w3.org/1999/xlink" viewBox="0 0 193.96 193.96"><defs><style>.cls-1{fill:url(#무제_그라디언트_5);}.cls-2{fill:none;stroke:#fff;stroke-linecap:round;stroke-linejoin:round;stroke-width:5px;}.cls-3{fill:#fff;}</style><linearGradient id="무제_그라디언트_5" y1="96.98" x2="193.96" y2="96.98" gradientUnits="userSpaceOnUse"><stop offset="0" stop-color="#2968ff"/><stop offset="1" stop-color="#29beff"/></linearGradient></defs><g id="레이어_2" data-name="레이어 2"><g id="레이어_1-2" data-name="레이어 1"><circle class="cls-1" cx="96.98" cy="96.98" r="96.98"/><polygon class="cls-2" points="156.54 81.98 144.57 72.8 144.57 72.8 144.57 72.8 96.87 36.2 37.43 81.98 49.35 81.98 49.35 141.98 144.57 141.98 144.57 81.98 156.54 81.98"/><path class="cls-3" d="M61.81,101.91v9.56H58.57V89.39H67.4c4.59,0,7,2.5,7,5.94a5.08,5.08,0,0,1-3.66,5.2c1.67.46,3.25,1.77,3.25,5.62v1a16.2,16.2,0,0,0,.3,4.34H71.17a15.21,15.21,0,0,1-.39-4.79v-.44c0-3-.84-4.33-4.72-4.33Zm0-2.71h4.65c3.23,0,4.62-1.22,4.62-3.58s-1.46-3.51-4.34-3.51H61.81Z"/><path class="cls-3" d="M93.37,101.3H82.47v7.39h12L94,111.47H79.26V89.39H93.88v2.78H82.47v6.36h10.9Z"/><path class="cls-3" d="M98.34,111.47V89.39h4.26c3.09,5.13,9.63,15.72,10.83,18.12h0c-.22-2.73-.21-6.28-.21-9.89V89.39h3.07v22.08h-4c-2.81-4.7-9.7-16.22-11-18.72h-.05c.16,2.41.17,6.3.17,10.28v8.44Z"/><path class="cls-3" d="M126.76,92.17h-7.05V89.39h17.4v2.78h-7.06v19.3h-3.29Z"/></g></g></svg>