<svg xmlns="http://www.w3.org/2000/svg" xmlns:xlink="http://www.w3.org/1999/xlink" viewBox="0 0 193.96 193.96"><defs><style>.cls-1{fill:url(#무제_그라디언트_5);}.cls-2{fill:none;stroke:#fff;stroke-miterlimit:10;stroke-width:5px;}</style><linearGradient id="무제_그라디언트_5" y1="96.98" x2="193.96" y2="96.98" gradientUnits="userSpaceOnUse"><stop offset="0" stop-color="#2968ff"/><stop offset="1" stop-color="#29beff"/></linearGradient></defs><g id="레이어_2" data-name="레이어 2"><g id="레이어_1-2" data-name="레이어 1"><circle class="cls-1" cx="96.98" cy="96.98" r="96.98"/><circle class="cls-2" cx="96.98" cy="96.98" r="18.94"/><path class="cls-2" d="M127.1,135.68l-11-5.24a6.48,6.48,0,0,0-8.87,3.68l-4.08,11.52a6.48,6.48,0,0,1-12.2,0l-4.1-11.5a6.46,6.46,0,0,0-8.87-3.67l-11,5.25a6.47,6.47,0,0,1-8.63-8.62l5.24-11a6.48,6.48,0,0,0-3.68-8.87l-11.51-4.08a6.47,6.47,0,0,1,0-12.2l11.51-4.1a6.46,6.46,0,0,0,3.67-8.87l-5.25-11a6.47,6.47,0,0,1,8.61-8.63l11,5.24a6.47,6.47,0,0,0,8.87-3.68l4.09-11.51a6.47,6.47,0,0,1,12.19,0l4.1,11.51A6.46,6.46,0,0,0,116,63.5l11-5.25a6.46,6.46,0,0,1,8.62,8.61l-5.24,11a6.47,6.47,0,0,0,3.68,8.87l11.52,4.09a6.47,6.47,0,0,1,0,12.19l-11.5,4.1a6.46,6.46,0,0,0-3.67,8.87l5.25,11A6.47,6.47,0,0,1,127.1,135.68Z"/></g></g></svg>