<svg xmlns="http://www.w3.org/2000/svg" xmlns:xlink="http://www.w3.org/1999/xlink" viewBox="0 0 193.96 193.96"><defs><style>.cls-1{fill:url(#무제_그라디언트_5);}.cls-2{fill:#fff;}</style><linearGradient id="무제_그라디언트_5" y1="96.98" x2="193.96" y2="96.98" gradientUnits="userSpaceOnUse"><stop offset="0" stop-color="#2968ff"/><stop offset="1" stop-color="#29beff"/></linearGradient></defs><g id="레이어_2" data-name="레이어 2"><g id="레이어_1-2" data-name="레이어 1"><circle class="cls-1" cx="96.98" cy="96.98" r="96.98"/><path class="cls-2" d="M77.14,87.83c0-1-.75-1.51-1.89-1.51H72.44v3.1h2.72C76.57,89.42,77.14,88.79,77.14,87.83Z"/><path class="cls-2" d="M75.08,91.7H72.44v3.7H75.1c1.59,0,2.32-.66,2.32-1.9S76.71,91.7,75.08,91.7Z"/><path class="cls-2" d="M136.44,87.83c0-1-.76-1.51-1.9-1.51h-2.81v3.1h2.72C135.86,89.42,136.44,88.79,136.44,87.83Z"/><path class="cls-2" d="M114.84,86.39H112.3v3.48h2.47c1.62,0,2.24-.61,2.24-1.75S116.29,86.39,114.84,86.39Z"/><path class="cls-2" d="M134.37,91.7h-2.64v3.7h2.66c1.59,0,2.32-.66,2.32-1.9S136,91.7,134.37,91.7Z"/><path class="cls-2" d="M148,69.83H48A15.12,15.12,0,0,0,32.87,84.94V97.16A15.12,15.12,0,0,0,48,112.28H148a15.11,15.11,0,0,0,15.11-15.12V84.94A15.11,15.11,0,0,0,148,69.83ZM47.48,97.88c-3.46,0-5.28-1.71-5.61-4.2h3c.31,1.37,1.3,2,2.87,2S50,95,50,94s-.65-1.59-3-2.13c-3.71-.87-4.63-2.22-4.63-4.07,0-2.37,1.78-4,5-4,3.62,0,5.07,2,5.26,3.94h-3C49.5,86.94,49,86,47.27,86c-1.19,0-1.92.5-1.92,1.47s.58,1.33,2.79,1.84c4,.94,4.84,2.41,4.84,4.34C53,96.17,51.09,97.88,47.48,97.88ZM66.42,92c0,4.67-2.73,5.86-5.74,5.86S55,96.64,55,92.08V84h3v8.13c0,2.62,1.34,3.39,2.81,3.39,1.69,0,2.75-.91,2.75-3.39V84h3Zm9.28,5.66H69.54V84h6c3.3,0,4.55,1.72,4.55,3.49a3.11,3.11,0,0,1-1.74,3,3.26,3.26,0,0,1,2.13,3.11C80.44,95.93,78.61,97.68,75.7,97.68Zm12,.2c-3.47,0-5.29-1.71-5.62-4.2h3c.31,1.37,1.29,2,2.87,2S90.2,95,90.2,94s-.66-1.59-3-2.13c-3.72-.87-4.64-2.22-4.64-4.07,0-2.37,1.78-4,5-4,3.63,0,5.07,2,5.26,3.94h-3c-.14-.84-.6-1.75-2.36-1.75-1.2,0-1.92.5-1.92,1.47s.58,1.33,2.78,1.84c4,.94,4.84,2.41,4.84,4.34C93.21,96.17,91.32,97.88,87.72,97.88Zm13.54,0c-4.32,0-6.37-3.07-6.37-6.95s2.11-7.09,6.51-7.09c3.64,0,5.4,2.13,5.73,4.42h-2.95a2.67,2.67,0,0,0-2.87-2.11c-2.43,0-3.37,2.19-3.37,4.68,0,2.3.81,4.73,3.45,4.73a2.72,2.72,0,0,0,2.79-2.08h3C106.6,96,104.68,97.88,101.26,97.88Zm18.44-3.47v.67a10.68,10.68,0,0,0,.2,2.6h-2.8a9.57,9.57,0,0,1-.28-3.06v-.2c0-1.49-.38-2.2-2.58-2.2H112.3v5.46h-2.88V84h6c3,0,4.58,1.64,4.58,3.75A3.26,3.26,0,0,1,118,91C118.68,91.26,119.7,92,119.7,94.41Zm5.87,3.27h-2.95V84h2.95Zm9.42,0h-6.16V84h6c3.3,0,4.55,1.72,4.55,3.49a3.1,3.1,0,0,1-1.74,3,3.26,3.26,0,0,1,2.13,3.11C139.73,95.93,137.9,97.68,135,97.68Zm16.75,0H142V84h9.68v2.42H144.9v2.92h6.52V91.8H144.9v3.47h7.19Z"/><polygon class="cls-2" points="67.62 142.2 75.05 113.65 46.87 126.78 56.22 131.67 46.32 142.09 52.41 145.33 60.67 134.65 67.62 142.2"/></g></g></svg>